<svg width="24" height="24" viewBox="0 0 24 24" fill="none" xmlns="http://www.w3.org/2000/svg">
<g id="ic_Flower">
<path id="Vector" d="M19.72 12.1275C19.644 12.0834 19.5606 12.0412 19.4744 12C19.5606 11.9587 19.644 11.9166 19.72 11.8725C20.1499 11.6281 20.5272 11.301 20.8302 10.9102C21.1332 10.5193 21.3559 10.0724 21.4855 9.5951C21.6151 9.11782 21.649 8.61963 21.5852 8.12921C21.5215 7.63878 21.3614 7.16581 21.1141 6.73752C20.8668 6.30923 20.5373 5.93408 20.1444 5.63368C19.7515 5.33327 19.3032 5.11354 18.825 4.98713C18.3469 4.86072 17.8485 4.83013 17.3585 4.89713C16.8685 4.96413 16.3966 5.12738 15.97 5.3775C15.894 5.42156 15.8153 5.47125 15.7375 5.52656C15.745 5.43281 15.7497 5.33906 15.7497 5.24531C15.7497 4.25075 15.3546 3.29692 14.6513 2.59366C13.9481 1.8904 12.9942 1.49531 11.9997 1.49531C11.0051 1.49531 10.0513 1.8904 9.34802 2.59366C8.64475 3.29692 8.24967 4.25075 8.24967 5.24531C8.24967 5.33344 8.24967 5.42719 8.26185 5.52656C8.18404 5.47312 8.10529 5.42156 8.02935 5.3775C7.60271 5.12738 7.13081 4.96413 6.64082 4.89713C6.15083 4.83013 5.65243 4.86072 5.17431 4.98713C4.69618 5.11354 4.24779 5.33327 3.85493 5.63368C3.46208 5.93408 3.13252 6.30923 2.88524 6.73752C2.63796 7.16581 2.47784 7.63878 2.41409 8.12921C2.35035 8.61963 2.38424 9.11782 2.51382 9.5951C2.64339 10.0724 2.8661 10.5193 3.1691 10.9102C3.47211 11.301 3.84943 11.6281 4.27935 11.8725C4.35529 11.9166 4.43873 11.9587 4.52498 12C4.43873 12.0412 4.35529 12.0834 4.27935 12.1275C3.84943 12.3719 3.47211 12.699 3.1691 13.0898C2.8661 13.4807 2.64339 13.9276 2.51382 14.4049C2.38424 14.8822 2.35035 15.3804 2.41409 15.8708C2.47784 16.3612 2.63796 16.8342 2.88524 17.2625C3.13252 17.6908 3.46208 18.0659 3.85493 18.3663C4.24779 18.6667 4.69618 18.8865 5.17431 19.0129C5.65243 19.1393 6.15083 19.1699 6.64082 19.1029C7.13081 19.0359 7.60271 18.8726 8.02935 18.6225C8.10529 18.5784 8.18404 18.5287 8.26185 18.4734C8.25435 18.5672 8.24967 18.6609 8.24967 18.75C8.24967 19.7446 8.64475 20.6984 9.34802 21.4016C10.0513 22.1049 11.0051 22.5 11.9997 22.5C12.9942 22.5 13.9481 22.1049 14.6513 21.4016C15.3546 20.6984 15.7497 19.7446 15.7497 18.75C15.7497 18.6619 15.745 18.5681 15.7375 18.4734C15.8153 18.5269 15.894 18.5784 15.97 18.6225C16.538 18.9516 17.1829 19.1249 17.8394 19.125C18.1692 19.1246 18.4976 19.0811 18.8162 18.9956C19.5326 18.8036 20.176 18.4035 20.665 17.8458C21.154 17.2881 21.4666 16.5979 21.5634 15.8626C21.6601 15.1272 21.5366 14.3797 21.2085 13.7145C20.8804 13.0493 20.3624 12.4964 19.72 12.1256V12.1275ZM11.9997 14.625C11.4805 14.625 10.973 14.471 10.5413 14.1826C10.1096 13.8942 9.77316 13.4842 9.57448 13.0045C9.3758 12.5249 9.32382 11.9971 9.4251 11.4879C9.52639 10.9787 9.7764 10.511 10.1435 10.1438C10.5106 9.77673 10.9784 9.52672 11.4876 9.42544C11.9968 9.32415 12.5246 9.37614 13.0042 9.57482C13.4839 9.7735 13.8938 10.1099 14.1823 10.5416C14.4707 10.9733 14.6247 11.4808 14.6247 12C14.6247 12.6962 14.3481 13.3639 13.8558 13.8562C13.3635 14.3484 12.6959 14.625 11.9997 14.625Z" fill="#FF7BD2"/>
<circle id="Ellipse 15" cx="11.9999" cy="12" r="3.6" fill="#FF7BD2"/>
</g>
</svg>
