<svg width="38" height="38" viewBox="0 0 38 38" fill="none" xmlns="http://www.w3.org/2000/svg">
<path d="M31.7321 18.6545C31.6413 18.6021 31.5415 18.5519 31.4384 18.5028C31.5415 18.4537 31.6413 18.4035 31.7321 18.351C32.2462 18.0601 32.6974 17.6708 33.0598 17.2056C33.4221 16.7404 33.6884 16.2085 33.8434 15.6404C33.9983 15.0724 34.0388 14.4794 33.9626 13.8957C33.8864 13.312 33.6949 12.7491 33.3992 12.2393C33.1035 11.7296 32.7094 11.2831 32.2396 10.9255C31.7699 10.568 31.2336 10.3064 30.6619 10.156C30.0902 10.0055 29.4942 9.96914 28.9082 10.0489C28.3223 10.1286 27.758 10.3229 27.2478 10.6206C27.157 10.6731 27.0628 10.7322 26.9698 10.798C26.9787 10.6865 26.9843 10.5749 26.9843 10.4633C26.9843 9.27955 26.5119 8.1443 25.6709 7.30727C24.8299 6.47024 23.6893 6 22.5 6C21.3107 6 20.1701 6.47024 19.3291 7.30727C18.4882 8.1443 18.0157 9.27955 18.0157 10.4633C18.0157 10.5682 18.0157 10.6798 18.0303 10.798C17.9372 10.7344 17.8431 10.6731 17.7522 10.6206C17.2421 10.3229 16.6778 10.1286 16.0918 10.0489C15.5059 9.96914 14.9099 10.0055 14.3381 10.156C13.7664 10.3064 13.2302 10.568 12.7604 10.9255C12.2906 11.2831 11.8965 11.7296 11.6008 12.2393C11.3051 12.7491 11.1137 13.312 11.0374 13.8957C10.9612 14.4794 11.0017 15.0724 11.1567 15.6404C11.3116 16.2085 11.5779 16.7404 11.9403 17.2056C12.3026 17.6708 12.7538 18.0601 13.2679 18.351C13.3587 18.4035 13.4585 18.4537 13.5617 18.5028C13.4585 18.5519 13.3587 18.6021 13.2679 18.6545C12.7538 18.9455 12.3026 19.3347 11.9403 19.7999C11.5779 20.2651 11.3116 20.7971 11.1567 21.3651C11.0017 21.9332 10.9612 22.5261 11.0374 23.1098C11.1137 23.6936 11.3051 24.2565 11.6008 24.7662C11.8965 25.276 12.2906 25.7225 12.7604 26.0801C13.2302 26.4376 13.7664 26.6991 14.3381 26.8496C14.9099 27 15.5059 27.0364 16.0918 26.9567C16.6778 26.877 17.2421 26.6827 17.7522 26.385C17.8431 26.3325 17.9372 26.2734 18.0303 26.2075C18.0213 26.3191 18.0157 26.4307 18.0157 26.5367C18.0157 27.7204 18.4882 28.8557 19.3291 29.6927C20.1701 30.5298 21.3107 31 22.5 31C23.6893 31 24.8299 30.5298 25.6709 29.6927C26.5119 28.8557 26.9843 27.7204 26.9843 26.5367C26.9843 26.4318 26.9787 26.3202 26.9698 26.2075C27.0628 26.2711 27.157 26.3325 27.2478 26.385C27.9271 26.7766 28.6982 26.9829 29.4832 26.983C29.8777 26.9825 30.2704 26.9308 30.6514 26.8291C31.5081 26.6005 32.2775 26.1243 32.8622 25.4605C33.4469 24.7967 33.8208 23.9753 33.9365 23.1001C34.0521 22.2248 33.9045 21.3351 33.5121 20.5434C33.1197 19.7517 32.5003 19.0936 31.7321 18.6523V18.6545ZM22.5 21.6271C21.8792 21.6271 21.2723 21.4439 20.7561 21.1006C20.2399 20.7572 19.8375 20.2693 19.5999 19.6984C19.3624 19.1275 19.3002 18.4993 19.4213 17.8933C19.5424 17.2872 19.8414 16.7305 20.2804 16.2936C20.7194 15.8566 21.2787 15.5591 21.8876 15.4385C22.4965 15.318 23.1277 15.3798 23.7013 15.6163C24.2748 15.8528 24.7651 16.2532 25.11 16.767C25.4549 17.2808 25.639 17.8849 25.639 18.5028C25.639 19.3314 25.3083 20.1261 24.7196 20.712C24.131 21.2979 23.3325 21.6271 22.5 21.6271Z" fill="#FF7BD2"/>
<circle cx="23.5" cy="19.5" r="4.5" fill="#FF7BD2"/>
</svg>
