<svg width="24" height="24" viewBox="0 0 24 24" fill="none" xmlns="http://www.w3.org/2000/svg">
<g id="ic_Clock">
<path id="Vector" d="M12 4C10.4178 4 8.87103 4.46919 7.55544 5.34824C6.23985 6.22729 5.21447 7.47672 4.60897 8.93853C4.00347 10.4003 3.84504 12.0089 4.15372 13.5607C4.4624 15.1126 5.22433 16.538 6.34315 17.6569C7.46197 18.7757 8.88743 19.5376 10.4393 19.8463C11.9911 20.155 13.5997 19.9965 15.0615 19.391C16.5233 18.7855 17.7727 17.7602 18.6518 16.4446C19.5308 15.129 20 13.5822 20 12C19.9978 9.87895 19.1542 7.84542 17.6544 6.34562C16.1546 4.84581 14.121 4.00224 12 4ZM16.3077 12.6154H12C11.8368 12.6154 11.6803 12.5505 11.5649 12.4351C11.4495 12.3197 11.3846 12.1632 11.3846 12V7.69231C11.3846 7.5291 11.4495 7.37257 11.5649 7.25716C11.6803 7.14176 11.8368 7.07692 12 7.07692C12.1632 7.07692 12.3197 7.14176 12.4351 7.25716C12.5506 7.37257 12.6154 7.5291 12.6154 7.69231V11.3846H16.3077C16.4709 11.3846 16.6274 11.4494 16.7428 11.5649C16.8582 11.6803 16.9231 11.8368 16.9231 12C16.9231 12.1632 16.8582 12.3197 16.7428 12.4351C16.6274 12.5505 16.4709 12.6154 16.3077 12.6154Z" fill="black"/>
</g>
</svg>
