<svg width="24" height="24" viewBox="0 0 24 24" fill="none" xmlns="http://www.w3.org/2000/svg">
<g id="ic_Calendar">
<path id="Vector" d="M18.6667 5.23077H16.6667V4.61538C16.6667 4.45217 16.5964 4.29565 16.4714 4.18024C16.3464 4.06483 16.1768 4 16 4C15.8232 4 15.6536 4.06483 15.5286 4.18024C15.4036 4.29565 15.3333 4.45217 15.3333 4.61538V5.23077H8.66667V4.61538C8.66667 4.45217 8.59643 4.29565 8.4714 4.18024C8.34638 4.06483 8.17681 4 8 4C7.82319 4 7.65362 4.06483 7.5286 4.18024C7.40357 4.29565 7.33333 4.45217 7.33333 4.61538V5.23077H5.33333C4.97971 5.23077 4.64057 5.36044 4.39052 5.59125C4.14048 5.82207 4 6.13512 4 6.46154V18.7692C4 19.0957 4.14048 19.4087 4.39052 19.6395C4.64057 19.8703 4.97971 20 5.33333 20H18.6667C19.0203 20 19.3594 19.8703 19.6095 19.6395C19.8595 19.4087 20 19.0957 20 18.7692V6.46154C20 6.13512 19.8595 5.82207 19.6095 5.59125C19.3594 5.36044 19.0203 5.23077 18.6667 5.23077ZM10.6667 16.9231C10.6667 17.0863 10.5964 17.2428 10.4714 17.3582C10.3464 17.4736 10.1768 17.5385 10 17.5385C9.82319 17.5385 9.65362 17.4736 9.5286 17.3582C9.40357 17.2428 9.33333 17.0863 9.33333 16.9231V12.9954L8.965 13.1662C8.80675 13.2392 8.62356 13.2512 8.45571 13.1996C8.28787 13.1479 8.14912 13.0368 8.07 12.8908C7.99088 12.7447 7.97786 12.5756 8.03381 12.4207C8.08975 12.2657 8.21009 12.1377 8.36833 12.0646L9.70167 11.4492C9.80334 11.4023 9.91634 11.3801 10.0299 11.3848C10.1435 11.3895 10.2539 11.421 10.3506 11.4761C10.4473 11.5313 10.5271 11.6084 10.5824 11.7001C10.6378 11.7918 10.6667 11.8951 10.6667 12V16.9231ZM15.3333 16.3077C15.5101 16.3077 15.6797 16.3725 15.8047 16.4879C15.9298 16.6033 16 16.7599 16 16.9231C16 17.0863 15.9298 17.2428 15.8047 17.3582C15.6797 17.4736 15.5101 17.5385 15.3333 17.5385H12.6667C12.5429 17.5385 12.4215 17.5066 12.3162 17.4466C12.2109 17.3865 12.1258 17.3005 12.0704 17.1983C12.015 17.0961 11.9916 16.9816 12.0027 16.8678C12.0138 16.754 12.059 16.6453 12.1333 16.5538L14.5317 13.6023C14.5862 13.5353 14.6254 13.4586 14.6467 13.3771C14.668 13.2956 14.671 13.211 14.6556 13.1284C14.6402 13.0457 14.6067 12.9669 14.5571 12.8966C14.5075 12.8264 14.4429 12.7663 14.3672 12.7199C14.2915 12.6736 14.2063 12.642 14.1169 12.6271C14.0276 12.6122 13.9358 12.6144 13.8474 12.6334C13.7589 12.6524 13.6756 12.6879 13.6025 12.7377C13.5295 12.7875 13.4682 12.8506 13.4225 12.9231C13.38 12.9953 13.3223 13.0589 13.2527 13.1102C13.1832 13.1615 13.1032 13.1994 13.0175 13.2217C12.9318 13.244 12.8422 13.2502 12.7538 13.24C12.6655 13.2298 12.5803 13.2034 12.5032 13.1623C12.4261 13.1212 12.3587 13.0663 12.305 13.0007C12.2513 12.9352 12.2123 12.8604 12.1904 12.7807C12.1685 12.7011 12.1642 12.6182 12.1775 12.5369C12.1909 12.4557 12.2218 12.3777 12.2683 12.3077C12.4886 11.9559 12.8283 11.681 13.235 11.5256C13.6417 11.3702 14.0925 11.343 14.5177 11.4481C14.9428 11.5533 15.3185 11.785 15.5865 12.1073C15.8545 12.4296 15.9999 12.8245 16 13.2308C16.0014 13.6321 15.8597 14.0227 15.5967 14.3423L14 16.3077H15.3333ZM5.33333 8.92308V6.46154H7.33333V7.07692C7.33333 7.24013 7.40357 7.39666 7.5286 7.51207C7.65362 7.62747 7.82319 7.69231 8 7.69231C8.17681 7.69231 8.34638 7.62747 8.4714 7.51207C8.59643 7.39666 8.66667 7.24013 8.66667 7.07692V6.46154H15.3333V7.07692C15.3333 7.24013 15.4036 7.39666 15.5286 7.51207C15.6536 7.62747 15.8232 7.69231 16 7.69231C16.1768 7.69231 16.3464 7.62747 16.4714 7.51207C16.5964 7.39666 16.6667 7.24013 16.6667 7.07692V6.46154H18.6667V8.92308H5.33333Z" fill="black"/>
</g>
</svg>
