<svg width="24" height="24" viewBox="0 0 24 24" fill="none" xmlns="http://www.w3.org/2000/svg">
<g id="ic_CreditCard">
<path id="Vector" d="M19.2857 6H4.71429C4.39224 6 4.08338 6.12643 3.85566 6.35147C3.62793 6.57652 3.5 6.88174 3.5 7.2V16.8C3.5 17.1183 3.62793 17.4235 3.85566 17.6485C4.08338 17.8736 4.39224 18 4.71429 18H19.2857C19.6078 18 19.9166 17.8736 20.1443 17.6485C20.3721 17.4235 20.5 17.1183 20.5 16.8V7.2C20.5 6.88174 20.3721 6.57652 20.1443 6.35147C19.9166 6.12643 19.6078 6 19.2857 6ZM12.6071 15.6H11.3929C11.2318 15.6 11.0774 15.5368 10.9635 15.4243C10.8497 15.3117 10.7857 15.1591 10.7857 15C10.7857 14.8409 10.8497 14.6883 10.9635 14.5757C11.0774 14.4632 11.2318 14.4 11.3929 14.4H12.6071C12.7682 14.4 12.9226 14.4632 13.0365 14.5757C13.1503 14.6883 13.2143 14.8409 13.2143 15C13.2143 15.1591 13.1503 15.3117 13.0365 15.4243C12.9226 15.5368 12.7682 15.6 12.6071 15.6ZM17.4643 15.6H15.0357C14.8747 15.6 14.7203 15.5368 14.6064 15.4243C14.4925 15.3117 14.4286 15.1591 14.4286 15C14.4286 14.8409 14.4925 14.6883 14.6064 14.5757C14.7203 14.4632 14.8747 14.4 15.0357 14.4H17.4643C17.6253 14.4 17.7797 14.4632 17.8936 14.5757C18.0075 14.6883 18.0714 14.8409 18.0714 15C18.0714 15.1591 18.0075 15.3117 17.8936 15.4243C17.7797 15.5368 17.6253 15.6 17.4643 15.6ZM4.71429 9V7.2H19.2857V9H4.71429Z" fill="black"/>
</g>
</svg>
