<svg width="20" height="20" viewBox="0 0 20 20" fill="none" xmlns="http://www.w3.org/2000/svg">
<g id="ic_Flower" clip-path="url(#clip0_456_3534)">
<g id="Flower">
<path id="Vector" d="M16.7712 10.7258C16.6011 10.6297 16.4228 10.5489 16.2384 10.4844C16.4228 10.4198 16.6011 10.3391 16.7712 10.243C17.1088 10.048 17.4048 9.78851 17.6421 9.47921C17.8794 9.16991 18.0535 8.81689 18.1544 8.4403C18.2554 8.06372 18.2811 7.67094 18.2302 7.28441C18.1793 6.89787 18.0528 6.52514 17.8579 6.1875C17.663 5.84986 17.4034 5.55392 17.0941 5.31658C16.7848 5.07923 16.4318 4.90514 16.0552 4.80423C15.6786 4.70331 15.2859 4.67757 14.8993 4.72845C14.5128 4.77933 14.1401 4.90585 13.8024 5.10078C13.6346 5.20042 13.4756 5.31438 13.3274 5.44141C13.3633 5.24943 13.3824 5.05468 13.3845 4.85938C13.3845 4.07201 13.0717 3.3169 12.5149 2.76015C11.9582 2.2034 11.2031 1.89063 10.4157 1.89062C9.62834 1.89063 8.87323 2.2034 8.31648 2.76015C7.75973 3.3169 7.44695 4.07201 7.44695 4.85938C7.44898 5.05468 7.46807 5.24943 7.50398 5.44141C7.35577 5.31438 7.19684 5.20042 7.02898 5.10078C6.34709 4.7071 5.53673 4.60043 4.77618 4.80423C4.01564 5.00802 3.3672 5.5056 2.97352 6.1875C2.57984 6.8694 2.47316 7.67975 2.67696 8.4403C2.88076 9.20085 3.37834 9.84929 4.06023 10.243C4.23034 10.3391 4.40865 10.4198 4.59305 10.4844C4.40865 10.5489 4.23034 10.6297 4.06023 10.7258C3.55158 11.0193 3.1414 11.457 2.88158 11.9837C2.62175 12.5103 2.52396 13.1022 2.60056 13.6844C2.67717 14.2667 2.92473 14.8131 3.31194 15.2546C3.69915 15.6961 4.2086 16.0129 4.77586 16.1648C5.02814 16.2324 5.28814 16.2668 5.5493 16.2672C6.06905 16.2666 6.57945 16.1289 7.02898 15.868C7.19684 15.7683 7.35577 15.6544 7.50398 15.5273C7.46807 15.7193 7.44898 15.9141 7.44695 16.1094C7.44695 16.8967 7.75973 17.6518 8.31648 18.2086C8.87323 18.7653 9.62834 19.0781 10.4157 19.0781C11.2031 19.0781 11.9582 18.7653 12.5149 18.2086C13.0717 17.6518 13.3845 16.8967 13.3845 16.1094C13.3824 15.9141 13.3633 15.7193 13.3274 15.5273C13.4756 15.6544 13.6346 15.7683 13.8024 15.868C14.2521 16.1283 14.7625 16.2655 15.2821 16.2656C15.5433 16.2652 15.8033 16.2308 16.0555 16.1633C16.6228 16.0113 17.1323 15.6946 17.5195 15.2531C17.9067 14.8116 18.1542 14.2651 18.2308 13.6829C18.3074 13.1006 18.2097 12.5088 17.9498 11.9821C17.69 11.4555 17.2798 11.0177 16.7712 10.7242V10.7258ZM14.2712 5.9125C14.5024 5.76842 14.7602 5.67233 15.0294 5.62995C15.2985 5.58756 15.5734 5.59975 15.8377 5.66579C16.102 5.73182 16.3504 5.85035 16.5679 6.01433C16.7855 6.17831 16.9679 6.38438 17.1042 6.62028C17.2405 6.85617 17.3279 7.11708 17.3613 7.38747C17.3947 7.65786 17.3734 7.9322 17.2986 8.19417C17.2238 8.45614 17.097 8.70039 16.9259 8.91238C16.7548 9.12437 16.5427 9.29976 16.3024 9.42813C15.9298 9.64297 15.1368 9.90859 13.4587 10.0117L13.3462 10.0055C13.2282 9.29047 12.8528 8.6433 12.2907 8.18594L12.3423 8.08359C13.272 6.68203 13.8985 6.12813 14.2712 5.9125ZM10.4157 12.5156C10.014 12.5156 9.62124 12.3965 9.2872 12.1733C8.95316 11.9501 8.69281 11.6329 8.53907 11.2617C8.38533 10.8905 8.34511 10.4821 8.42348 10.0881C8.50186 9.69407 8.69532 9.33214 8.97939 9.04806C9.26347 8.76399 9.6254 8.57053 10.0194 8.49215C10.4134 8.41378 10.8219 8.454 11.193 8.60774C11.5642 8.76149 11.8814 9.02184 12.1046 9.35587C12.3278 9.68991 12.447 10.0826 12.447 10.4844C12.447 11.0231 12.2329 11.5398 11.852 11.9207C11.4711 12.3016 10.9544 12.5156 10.4157 12.5156ZM10.4157 2.82812C10.9544 2.82812 11.4711 3.04213 11.852 3.42306C12.2329 3.804 12.447 4.32065 12.447 4.85938C12.447 5.28984 12.2805 6.10937 11.5305 7.61484C11.5102 7.64609 11.4891 7.67734 11.4688 7.70938C10.7896 7.45028 10.0387 7.45028 9.35945 7.70938L9.29773 7.61406C8.55086 6.10938 8.38445 5.28984 8.38445 4.85938C8.38445 4.32065 8.59846 3.804 8.97939 3.42306C9.36033 3.04213 9.87698 2.82812 10.4157 2.82812ZM4.52898 9.43125C4.0817 9.15255 3.76025 8.71092 3.63251 8.19963C3.50478 7.68833 3.58075 7.14741 3.8444 6.6911C4.10805 6.23478 4.53873 5.8988 5.04548 5.7541C5.55224 5.6094 6.09539 5.66732 6.56023 5.91562C6.93289 6.13125 7.55945 6.68516 8.48758 8.08672L8.53914 8.18906C7.97696 8.64746 7.60207 9.29581 7.48523 10.0117L7.37273 10.018C5.69461 9.91172 4.90164 9.64609 4.52898 9.43125ZM6.56023 15.0563C6.09539 15.3046 5.55224 15.3625 5.04548 15.2178C4.53873 15.0731 4.10805 14.7371 3.8444 14.2808C3.58075 13.8245 3.50478 13.2835 3.63251 12.7722C3.76025 12.261 4.0817 11.8193 4.52898 11.5406C4.90164 11.3258 5.69461 11.0602 7.37273 10.957L7.48523 10.9633C7.60319 11.6783 7.9786 12.3254 8.5407 12.7828L8.48914 12.8852C7.55945 14.2867 6.93289 14.8406 6.56023 15.0563ZM10.4157 18.1406C10.149 18.1406 9.88482 18.0881 9.63838 17.986C9.39193 17.8839 9.16801 17.7343 8.97939 17.5457C8.79077 17.3571 8.64115 17.1331 8.53907 16.8867C8.43699 16.6403 8.38445 16.3761 8.38445 16.1094C8.38445 15.6789 8.55086 14.8594 9.30086 13.3539C9.32117 13.3227 9.34227 13.2914 9.36258 13.2594C10.0418 13.5185 10.7927 13.5185 11.472 13.2594L11.5337 13.3547C12.2805 14.8594 12.447 15.6789 12.447 16.1094C12.447 16.3761 12.3944 16.6403 12.2923 16.8867C12.1903 17.1331 12.0406 17.3571 11.852 17.5457C11.6634 17.7343 11.4395 17.8839 11.193 17.986C10.9466 18.0881 10.6825 18.1406 10.4157 18.1406ZM17.0462 14.3125C16.9128 14.5436 16.7353 14.7461 16.5236 14.9085C16.312 15.071 16.0704 15.1901 15.8127 15.2592C15.555 15.3283 15.2863 15.3459 15.0218 15.3111C14.7573 15.2762 14.5022 15.1897 14.2712 15.0563C13.8985 14.8406 13.272 14.2867 12.3438 12.8852L12.2923 12.7828C12.8544 12.3244 13.2293 11.6761 13.3462 10.9602L13.4626 10.9531C15.1407 11.0562 15.9337 11.3219 16.3063 11.5367C16.5372 11.6704 16.7394 11.8482 16.9015 12.0601C17.0637 12.2719 17.1825 12.5136 17.2512 12.7714C17.3199 13.0291 17.3371 13.2979 17.3019 13.5623C17.2668 13.8268 17.1799 14.0817 17.0462 14.3125Z" fill="#D9D9D9"/>
</g>
</g>
<defs>
<clipPath id="clip0_456_3534">
<rect width="20" height="20" fill="white"/>
</clipPath>
</defs>
</svg>
