<svg width="24" height="24" viewBox="0 0 24 24" fill="none" xmlns="http://www.w3.org/2000/svg">
<g id="ic_MapPin">
<g id="Mask group">
<mask id="mask0_655_2549" style="mask-type:alpha" maskUnits="userSpaceOnUse" x="2" y="2" width="20" height="20">
<ellipse id="Ellipse 18" cx="12.0003" cy="12.0002" rx="9.14778" ry="9.14764" fill="#D9D9D9"/>
</mask>
<g mask="url(#mask0_655_2549)">
<ellipse id="Ellipse 19" cx="11.9144" cy="12.0002" rx="9.14778" ry="9.14764" fill="black"/>
<g id="Group 215">
<path id="Vector 54" d="M17.0812 23.2026V13.8902C17.0812 11.0834 14.8059 8.80811 11.9991 8.80811V8.80811C9.19233 8.80811 6.91699 11.0834 6.91699 13.8902V23.2026" stroke="white" stroke-width="0.9"/>
<path id="Vector 53" d="M13.9451 14.6626H10.0554C9.49406 14.6626 9.039 14.2076 9.039 13.6462V9.41618C9.039 8.62394 9.15962 7.84319 9.46303 7.13844C9.88496 6.1584 10.3183 5.44885 10.7462 4.98835C11.1734 4.52855 11.5685 4.34379 11.924 4.34032C12.2802 4.33684 12.6816 4.51454 13.1228 4.96382C13.5643 5.41339 14.0179 6.10845 14.4675 7.0669C14.8202 7.81853 14.9615 8.66275 14.9615 9.51984V13.6462C14.9615 14.2076 14.5064 14.6626 13.9451 14.6626Z" fill="white" stroke="white" stroke-width="0.677608"/>
</g>
</g>
</g>
</g>
</svg>
