<svg width="24" height="24" viewBox="0 0 24 24" fill="none" xmlns="http://www.w3.org/2000/svg">
<g id="ic_MapPin">
<path id="Vector" d="M12 4C10.1441 4.00201 8.36488 4.70629 7.05258 5.95835C5.74028 7.2104 5.00211 8.90797 5 10.6786C5 16.3934 11.3636 20.7095 11.6349 20.8901C11.7419 20.9616 11.8694 21 12 21C12.1306 21 12.2581 20.9616 12.3651 20.8901C12.6364 20.7095 19 16.3934 19 10.6786C18.9979 8.90797 18.2597 7.2104 16.9474 5.95835C15.6351 4.70629 13.8559 4.00201 12 4ZM12 8.25004C12.5034 8.25004 12.9956 8.39248 13.4142 8.65934C13.8328 8.92619 14.159 9.30549 14.3517 9.74925C14.5444 10.193 14.5948 10.6813 14.4965 11.1524C14.3983 11.6235 14.1559 12.0563 13.7999 12.3959C13.4439 12.7356 12.9904 12.9669 12.4966 13.0606C12.0028 13.1543 11.491 13.1062 11.0259 12.9224C10.5608 12.7386 10.1632 12.4273 9.88353 12.0279C9.60383 11.6285 9.45455 11.159 9.45455 10.6786C9.45455 10.0345 9.72273 9.41681 10.2001 8.96136C10.6775 8.50591 11.3249 8.25004 12 8.25004Z" fill="black"/>
</g>
</svg>
