<svg width="20" height="20" viewBox="0 0 20 20" fill="none" xmlns="http://www.w3.org/2000/svg">
<path d="M16.9996 8.09741C16.9981 8.30875 16.9287 8.51399 16.8016 8.68284C16.6745 8.85169 16.4964 8.97521 16.2937 9.03514L11.5071 10.508L10.0341 15.2942C9.97404 15.4968 9.85049 15.6747 9.68164 15.8018C9.51279 15.9289 9.30758 15.9983 9.09625 16H9.07749C8.87026 16.0019 8.66768 15.9385 8.49854 15.8187C8.32941 15.699 8.2023 15.529 8.13529 15.3329L4.05762 4.33588C4.0563 4.33264 4.05526 4.32929 4.0545 4.32588C3.99354 4.14885 3.98349 3.95828 4.0255 3.77583C4.06751 3.59338 4.15989 3.42638 4.29213 3.29383C4.42436 3.16129 4.59115 3.06851 4.77351 3.02605C4.95588 2.9836 5.1465 2.99318 5.32369 3.05369L5.33369 3.05682L16.3325 7.13656C16.5317 7.20462 16.7038 7.33459 16.8239 7.50746C16.9439 7.68033 17.0055 7.88705 16.9996 8.09741Z" fill="#FF7BD2"/>
</svg>
