<svg width="24" height="24" viewBox="0 0 24 24" fill="none" xmlns="http://www.w3.org/2000/svg">
<g clip-path="url(#clip0_655_2507)">
<path d="M19.9323 18.68C19.8749 18.7773 19.7924 18.8581 19.6929 18.9143C19.5935 18.9705 19.4807 19 19.3659 19H3.67274C3.55802 18.9999 3.44535 18.9702 3.34604 18.914C3.24673 18.8578 3.16428 18.777 3.10697 18.6798C3.04966 18.5825 3.0195 18.4722 3.01953 18.3599C3.01956 18.2477 3.04977 18.1374 3.10713 18.0401C4.35196 15.934 6.27029 14.4238 8.50902 13.7079C7.40164 13.0628 6.54128 12.0797 6.06006 10.9097C5.57883 9.73975 5.50336 8.44752 5.84522 7.23149C6.18708 6.01546 6.92738 4.94287 7.95242 4.17844C8.97747 3.414 10.2306 3 11.5193 3C12.8081 3 14.0612 3.414 15.0862 4.17844C16.1113 4.94287 16.8516 6.01546 17.1934 7.23149C17.5353 8.44752 17.4598 9.73975 16.9786 10.9097C16.4974 12.0797 15.637 13.0628 14.5296 13.7079C16.7684 14.4238 18.6867 15.934 19.9315 18.0401C19.989 18.1373 20.0194 18.2477 20.0195 18.36C20.0197 18.4723 19.9896 18.5827 19.9323 18.68Z" fill="black"/>
</g>
<defs>
<clipPath id="clip0_655_2507">
<rect width="24" height="24" fill="white"/>
</clipPath>
</defs>
</svg>
