<svg width="20" height="20" viewBox="0 0 20 20" fill="none" xmlns="http://www.w3.org/2000/svg">
<g id="ic_Flower">
<path id="Vector" d="M16.4335 10.1063C16.3702 10.0695 16.3007 10.0344 16.2288 10C16.3007 9.96562 16.3702 9.93047 16.4335 9.89375C16.7917 9.69005 17.1062 9.41751 17.3587 9.09179C17.6112 8.76608 17.7968 8.39364 17.9048 7.99591C18.0127 7.59819 18.041 7.18303 17.9879 6.77434C17.9347 6.36565 17.8013 5.97151 17.5952 5.6146C17.3892 5.25769 17.1145 4.94507 16.7872 4.69473C16.4598 4.44439 16.0861 4.26128 15.6877 4.15594C15.2893 4.0506 14.8739 4.02511 14.4656 4.08094C14.0573 4.13677 13.664 4.27282 13.3085 4.48125C13.2452 4.51797 13.1796 4.55938 13.1147 4.60547C13.121 4.52734 13.1249 4.44922 13.1249 4.37109C13.1249 3.54229 12.7956 2.74744 12.2096 2.16139C11.6235 1.57533 10.8287 1.24609 9.99989 1.24609C9.17108 1.24609 8.37623 1.57533 7.79018 2.16139C7.20413 2.74744 6.87489 3.54229 6.87489 4.37109C6.87489 4.44453 6.87489 4.52266 6.88504 4.60547C6.8202 4.56094 6.75457 4.51797 6.69129 4.48125C6.33576 4.27282 5.94251 4.13677 5.53418 4.08094C5.12586 4.02511 4.71052 4.0506 4.31208 4.15594C3.91365 4.26128 3.53999 4.44439 3.21261 4.69473C2.88523 4.94507 2.6106 5.25769 2.40453 5.6146C2.19846 5.97151 2.06503 6.36565 2.01191 6.77434C1.95879 7.18303 1.98703 7.59819 2.09501 7.99591C2.20299 8.39364 2.38858 8.76608 2.64108 9.09179C2.89359 9.41751 3.20802 9.69005 3.56629 9.89375C3.62957 9.93047 3.6991 9.96562 3.77098 10C3.6991 10.0344 3.62957 10.0695 3.56629 10.1063C3.20802 10.3099 2.89359 10.5825 2.64108 10.9082C2.38858 11.2339 2.20299 11.6064 2.09501 12.0041C1.98703 12.4018 1.95879 12.817 2.01191 13.2257C2.06503 13.6343 2.19846 14.0285 2.40453 14.3854C2.6106 14.7423 2.88523 15.0549 3.21261 15.3053C3.53999 15.5556 3.91365 15.7387 4.31208 15.8441C4.71052 15.9494 5.12586 15.9749 5.53418 15.9191C5.94251 15.8632 6.33576 15.7272 6.69129 15.5188C6.75457 15.482 6.8202 15.4406 6.88504 15.3945C6.87879 15.4727 6.87489 15.5508 6.87489 15.625C6.87489 16.4538 7.20413 17.2487 7.79018 17.8347C8.37623 18.4208 9.17108 18.75 9.99989 18.75C10.8287 18.75 11.6235 18.4208 12.2096 17.8347C12.7956 17.2487 13.1249 16.4538 13.1249 15.625C13.1249 15.5516 13.121 15.4734 13.1147 15.3945C13.1796 15.4391 13.2452 15.482 13.3085 15.5188C13.7819 15.793 14.3192 15.9374 14.8663 15.9375C15.1412 15.9371 15.4148 15.9009 15.6804 15.8297C16.2774 15.6697 16.8135 15.3362 17.221 14.8715C17.6285 14.4067 17.889 13.8316 17.9696 13.2188C18.0503 12.606 17.9473 11.9831 17.6739 11.4287C17.4005 10.8744 16.9688 10.4137 16.4335 10.1047V10.1063ZM9.99989 12.1875C9.56724 12.1875 9.14431 12.0592 8.78457 11.8188C8.42484 11.5785 8.14447 11.2368 7.9789 10.8371C7.81333 10.4374 7.77001 9.99757 7.85442 9.57324C7.93882 9.14891 8.14716 8.75913 8.45309 8.4532C8.75902 8.14728 9.14879 7.93894 9.57312 7.85453C9.99746 7.77013 10.4373 7.81345 10.837 7.97901C11.2367 8.14458 11.5784 8.42496 11.8187 8.78469C12.0591 9.14442 12.1874 9.56735 12.1874 10C12.1874 10.5802 11.9569 11.1366 11.5467 11.5468C11.1364 11.957 10.58 12.1875 9.99989 12.1875Z" fill="#FF7BD2"/>
<circle id="Ellipse 15" cx="10" cy="10" r="3" fill="#FF7BD2"/>
</g>
</svg>
