<svg width="81" height="21" viewBox="0 0 81 21" fill="none" xmlns="http://www.w3.org/2000/svg">
<path d="M34.9084 10.9155C34.6874 10.4602 34.3849 10.0637 34.0014 9.72757C33.4781 9.26383 32.7858 9.04166 31.9462 9.04166C31.5873 9.04166 31.2188 9.10496 30.8414 9.22895C30.4634 9.34983 30.1079 9.53849 29.7755 9.79303C29.6094 9.92015 29.4594 10.0631 29.3255 10.2215L29.3215 9.48949L29.3215 9.48899L34.9084 10.9155ZM34.9084 10.9155C35.0323 10.6624 35.1836 10.425 35.3622 10.2034L35.3633 10.202C35.6533 9.84878 36.0115 9.56748 36.4353 9.35818C36.8658 9.14558 37.3505 9.04166 37.8849 9.04166C38.6009 9.04166 39.2228 9.22386 39.7401 9.59718C40.2456 9.962 40.6259 10.4227 40.8774 10.9777C41.1296 11.5185 41.2582 12.0598 41.2582 12.6001V18.0946C41.2582 18.1938 41.2398 18.3044 41.1703 18.3933C41.0935 18.4915 40.9832 18.5282 40.8765 18.5282H40.8691C40.7609 18.5282 40.6518 18.496 40.5671 18.4113L40.5585 18.4027L40.551 18.393C40.4821 18.3045 40.4577 18.1985 40.4577 18.0946V12.6001C40.4577 12.2014 40.3662 11.7862 40.1778 11.353L40.1771 11.3514L40.1771 11.3514C39.9991 10.9314 39.716 10.5762 39.3228 10.2848L39.3219 10.2842C38.948 10.0037 38.471 9.85699 37.8775 9.85699C37.3056 9.85699 36.8352 10.0027 36.4548 10.2845L34.9084 10.9155Z" fill="black" stroke="black" stroke-width="0.393248"/>
<path d="M25.3928 17.2482L25.4014 18.1091C25.4014 18.1094 25.4014 18.1098 25.4014 18.1101L25.4014 18.111L25.598 18.1091L25.3928 17.2482ZM25.3928 17.2482C25.222 17.4562 25.0281 17.6484 24.8113 17.8247L24.8101 17.8257C24.4235 18.1349 24.0025 18.3727 23.5474 18.5382C23.0942 18.703 22.6494 18.787 22.214 18.787C21.4104 18.787 20.6876 18.5908 20.0515 18.1945L20.0505 18.1939C19.42 17.7959 18.9297 17.2723 18.5826 16.6247L18.5823 16.6241C18.2366 15.974 18.0631 15.2834 18.0631 14.5547V9.49713C18.0631 9.39791 18.0832 9.28687 18.1572 9.19861C18.2368 9.10373 18.3478 9.07095 18.4523 9.07095H18.4597C18.5646 9.07095 18.6778 9.1009 18.7611 9.19317C18.841 9.28164 18.8637 9.39497 18.8637 9.49713V14.5547C18.8637 15.2245 19.0166 15.8168 19.3184 16.3369C19.6224 16.8606 20.027 17.2646 20.5336 17.5529" fill="black" stroke="black" stroke-width="0.393248"/>
<path d="M7.80462 16.3462L7.78175 16.3593L7.76313 16.3779L7.74833 16.3927C7.74833 16.3927 7.74832 16.3927 7.74832 16.3927C7.67314 16.4679 7.6315 16.5644 7.6315 16.6724C7.6315 16.8006 7.69862 16.9117 7.77434 16.9995C8.26958 17.5964 8.82918 18.0317 9.45434 18.2974L9.45616 18.2981C10.082 18.5567 10.802 18.6833 11.612 18.6833C12.3817 18.6833 13.0771 18.5693 13.6952 18.3375C14.3186 18.1038 14.8173 17.7445 15.183 17.2569C15.5536 16.7628 15.7333 16.1565 15.7333 15.4506C15.7333 14.7905 15.5283 14.2467 15.1027 13.8427C14.706 13.4567 14.2431 13.1795 13.716 13.0124C13.2074 12.8462 12.5551 12.6841 11.7617 12.5254L11.7617 12.5254L11.7596 12.525C10.7805 12.3399 10.0122 12.0792 9.44605 11.7491C8.91443 11.4317 8.66157 10.9951 8.66157 10.4227C8.66157 9.89936 8.80958 9.49634 9.09035 9.19397L9.09035 9.19397L9.09129 9.19295C9.38618 8.87084 9.76459 8.63671 10.2329 8.49292C10.7161 8.34609 11.2372 8.27194 11.7972 8.27194C12.2527 8.27194 12.6248 8.30599 12.9171 8.37093L12.9171 8.37096L12.9206 8.37168C13.2192 8.43233 13.4778 8.52696 13.6989 8.65331C13.9264 8.7833 14.1846 8.96963 14.4738 9.21534C14.5316 9.26768 14.5874 9.31246 14.6401 9.34539C14.7052 9.38606 14.7803 9.4123 14.8628 9.4123C14.9459 9.4123 15.0237 9.38862 15.0929 9.34539L15.1119 9.33352L15.1277 9.31769L15.1425 9.30288L15.1524 9.293L15.1608 9.28182C15.2159 9.20829 15.2445 9.12247 15.2445 9.03056C15.2445 8.91548 15.2025 8.81079 15.1203 8.72861L15.1203 8.72859L15.118 8.72633C14.6478 8.27153 14.1488 7.94385 13.6201 7.75011C13.0994 7.55752 12.4903 7.46402 11.7972 7.46402C11.0142 7.46402 10.3253 7.57505 9.73487 7.80286C9.14769 8.02638 8.68292 8.36067 8.35118 8.81012L8.35117 8.81012L8.35028 8.81135C8.0215 9.2641 7.86105 9.80456 7.86105 10.4227C7.86105 10.953 8.00235 11.4158 8.29338 11.8002L8.29337 11.8002L8.2942 11.8013C8.58143 12.1752 9.00184 12.4769 9.54121 12.7132L9.54184 12.7135C10.0833 12.9484 10.7675 13.1394 11.5902 13.289C12.287 13.4265 12.8571 13.5631 13.3023 13.6986C13.7295 13.8287 14.1122 14.0419 14.4518 14.3396L14.4518 14.3397L14.4539 14.3415C14.7706 14.6111 14.9327 14.9735 14.9327 15.4506C14.9327 16.0278 14.7844 16.4852 14.5019 16.8384L14.5017 16.8386C14.217 17.1957 13.8306 17.4593 13.3339 17.6264L13.3334 17.6266C12.8342 17.7962 12.2613 17.8828 11.612 17.8828C10.8468 17.8828 10.2121 17.7648 9.70112 17.5374C9.19224 17.3038 8.75507 16.9605 8.38862 16.5048L8.38866 16.5048L8.3858 16.5014C8.29676 16.3956 8.17242 16.2907 8.01325 16.2907C7.93926 16.2907 7.86864 16.3096 7.80462 16.3462Z" fill="black" stroke="black" stroke-width="0.393248"/>
<path d="M72.3006 6.81482L72.3005 6.81479L72.298 6.81851C72.2392 6.90479 72.2194 7.00557 72.2194 7.103V18.0747C72.2194 18.1721 72.2392 18.2729 72.298 18.3592L72.3021 18.3651L72.3066 18.3708C72.3875 18.4724 72.5031 18.5101 72.6159 18.5101H72.6234C72.7327 18.5101 72.852 18.474 72.9296 18.3653C72.996 18.2789 73.0199 18.1757 73.0199 18.0747V7.103C73.0199 7.00339 72.9967 6.90179 72.9324 6.8161C72.8582 6.70377 72.7398 6.66031 72.6234 6.66031H72.6159C72.4954 6.66031 72.3785 6.70602 72.3006 6.81482Z" fill="black" stroke="black" stroke-width="0.393248"/>
<path d="M68.883 18.375L68.8827 18.3752L68.8902 18.3838C68.973 18.4785 69.0869 18.5102 69.1937 18.5102H69.2011C69.3076 18.5102 69.4204 18.477 69.5013 18.3811C69.5768 18.2916 69.5976 18.1785 69.5976 18.0766V9.46466C69.5976 9.36399 69.5763 9.25177 69.4993 9.16336C69.4178 9.06976 69.3056 9.03848 69.2011 9.03848H69.1937C69.0888 9.03848 68.9756 9.06843 68.8922 9.1607C68.8123 9.24917 68.7897 9.3625 68.7897 9.46466V18.0766C68.7897 18.1805 68.8142 18.2866 68.883 18.375Z" fill="black" stroke="black" stroke-width="0.393248"/>
<path d="M65.3678 16.4737C65.4375 16.3687 65.5031 16.261 65.5644 16.1507V18.0692C65.5644 18.2321 65.6311 18.3135 65.7644 18.3135H65.7718C65.9051 18.3135 65.9717 18.2321 65.9717 18.0692V9.47206C65.9717 9.30915 65.9051 9.22769 65.7718 9.22769H65.7644C65.6953 9.22769 65.6434 9.24991 65.6089 9.29434C65.5792 9.33877 65.5644 9.39801 65.5644 9.47206V11.536C65.5031 11.4252 65.4376 11.317 65.3678 11.2113M65.3678 16.4737V16.0991C65.1455 16.4887 64.8679 16.8442 64.5351 17.1658C64.0958 17.5903 63.5947 17.9211 63.032 18.158C62.4692 18.395 61.8817 18.5135 61.2696 18.5135C60.4699 18.5135 59.7096 18.3037 58.9889 17.8841C58.2731 17.4595 57.6955 16.8893 57.2561 16.1735C56.8217 15.4577 56.6045 14.6827 56.6045 13.8484C56.6045 13.0141 56.8217 12.2366 57.2561 11.5158C57.6955 10.7901 58.2731 10.215 58.9889 9.79047M65.3678 16.4737V18.0692C65.3678 18.1724 65.3881 18.2864 65.4622 18.377C65.5425 18.4751 65.6558 18.5102 65.7644 18.5102H65.7718C65.8803 18.5102 65.9936 18.4751 66.0739 18.377C66.148 18.2864 66.1683 18.1724 66.1683 18.0692V9.47206C66.1683 9.36881 66.148 9.25485 66.0739 9.16427C65.9936 9.06615 65.8803 9.03107 65.7718 9.03107H65.7644C65.6499 9.03107 65.534 9.07038 65.4537 9.17363L65.4492 9.17929L65.4453 9.18527C65.3873 9.27226 65.3678 9.3737 65.3678 9.47206V11.2113M65.3678 16.4737C65.1695 16.7727 64.9374 17.0505 64.6718 17.3072C64.215 17.7486 63.6934 18.0929 63.1083 18.3393C62.5213 18.5864 61.9079 18.7101 61.2696 18.7101C60.4336 18.7101 59.6394 18.4903 58.8899 18.054L58.8886 18.0532C58.145 17.6122 57.5445 17.0191 57.0885 16.2764L57.088 16.2755C56.635 15.5291 56.4079 14.7188 56.4079 13.8484C56.4079 12.978 56.635 12.1654 57.0877 11.4143L57.0879 11.414C57.5437 10.6612 58.1443 10.0628 58.8884 9.62146M58.9889 9.79047C59.7096 9.36098 60.4699 9.14624 61.2696 9.14624C61.8768 9.14624 62.4618 9.26719 63.0245 9.50908M58.9889 9.79047L58.8882 9.62156C58.8883 9.62153 58.8883 9.62149 58.8884 9.62146M58.9889 9.79047L58.8886 9.62135C58.8885 9.62139 58.8884 9.62143 58.8884 9.62146M63.0245 9.50908C63.5873 9.74604 64.0884 10.0793 64.5277 10.5087C64.8645 10.8343 65.1445 11.1938 65.3678 11.5874V11.2113M63.0245 9.50908L63.1008 9.32787C63.1011 9.32796 63.1013 9.32805 63.1015 9.32814M63.0245 9.50908L63.1022 9.32844C63.102 9.32834 63.1017 9.32824 63.1015 9.32814M65.3678 11.2113C65.168 10.9089 64.9336 10.6276 64.6647 10.3677M64.6647 10.3677C64.2081 9.92145 63.6867 9.57464 63.1015 9.32814M64.6647 10.3677C64.6646 10.3676 64.6645 10.3675 64.6644 10.3674L64.5278 10.5087L64.6652 10.3681C64.665 10.368 64.6649 10.3678 64.6647 10.3677ZM58.8884 9.62146C59.638 9.17483 60.4327 8.94962 61.2696 8.94962C61.9035 8.94962 62.5146 9.076 63.1015 9.32814M64.7753 11.8193L64.7753 11.8193L64.7762 11.8207C65.1713 12.4464 65.3678 13.1209 65.3678 13.8484C65.3678 14.5783 65.1823 15.2517 64.8107 15.8726C64.4379 16.4955 63.9363 16.9902 63.3033 17.3587C62.6718 17.7263 61.9926 17.9096 61.2622 17.9096C60.5683 17.9096 59.9091 17.7273 59.2816 17.3594C58.6579 16.986 58.1552 16.4882 57.772 15.8638C57.3959 15.243 57.2084 14.5724 57.2084 13.8484C57.2084 13.1138 57.3962 12.4356 57.7725 11.8099C58.1559 11.1757 58.6584 10.6759 59.2814 10.3078L59.2818 10.3076C59.9094 9.93475 60.5685 9.75014 61.2622 9.75014C61.9403 9.75014 62.5948 9.93438 63.2283 10.3079L63.2288 10.3082C63.8674 10.6819 64.3823 11.1848 64.7753 11.8193Z" fill="black" stroke="black" stroke-width="0.393248"/>
<path d="M69.1942 4.2574C69.4985 4.2574 69.7452 4.01071 69.7452 3.70641C69.7452 3.40211 69.4985 3.15542 69.1942 3.15542C68.8899 3.15542 68.6432 3.40211 68.6432 3.70641C68.6432 4.01071 68.8899 4.2574 69.1942 4.2574Z" fill="black" stroke="black" stroke-width="0.393248"/>
<path d="M46.9002 10.3472L46.8916 9.4864C46.8916 9.48605 46.8916 9.48571 46.8916 9.48536L46.8916 9.48443L46.6949 9.4864L46.9002 10.3472ZM46.9002 10.3472C47.0709 10.1393 47.2649 9.9471 47.4817 9.77075L47.4829 9.76975C47.8694 9.46053 48.2905 9.22273 48.7455 9.05725C49.1988 8.89244 49.6436 8.80845 50.079 8.80845C50.8826 8.80845 51.6054 9.00469 52.2415 9.40096L52.2425 9.40157C52.873 9.79951 53.3633 10.3232 53.7104 10.9708L53.7107 10.9713C54.0564 11.6214 54.2298 12.3121 54.2298 13.0408V18.0983C54.2298 18.1975 54.2097 18.3086 54.1357 18.3968C54.0561 18.4917 53.9451 18.5245 53.8407 18.5245H53.8333C53.7284 18.5245 53.6152 18.4946 53.5319 18.4023C53.4519 18.3138 53.4293 18.2005 53.4293 18.0983V13.0408C53.4293 12.371 53.2764 11.7787 52.9746 11.2586C52.6706 10.7349 52.266 10.3309 51.7593 10.0426" fill="black" stroke="black" stroke-width="0.393248"/>
</svg>
