<svg width="80" height="20" viewBox="0 0 80 20" fill="none" xmlns="http://www.w3.org/2000/svg">
<path d="M34.5817 9.94432C34.3607 9.48905 34.0583 9.09253 33.6748 8.75638C33.1514 8.29264 32.4592 8.07047 31.6195 8.07047C31.2607 8.07047 30.8922 8.13377 30.5148 8.25776C30.1367 8.37864 29.7813 8.56729 29.4488 8.82184C29.2828 8.94896 29.1328 9.09188 28.9988 9.25033L28.9948 8.5183L28.9948 8.51779L34.5817 9.94432ZM34.5817 9.94432C34.7057 9.69126 34.857 9.45381 35.0356 9.23223L35.0367 9.23086C35.3267 8.87759 35.6848 8.59629 36.1087 8.38699C36.5392 8.17439 37.0238 8.07047 37.5582 8.07047C38.2742 8.07047 38.8961 8.25267 39.4134 8.62599C39.919 8.99081 40.2992 9.45156 40.5507 10.0065C40.8029 10.5473 40.9316 11.0886 40.9316 11.6289V17.1234C40.9316 17.2226 40.9131 17.3332 40.8436 17.4222C40.7669 17.5203 40.6566 17.557 40.5498 17.557H40.5424C40.4343 17.557 40.3252 17.5248 40.2405 17.4401L40.2318 17.4315L40.2243 17.4218C40.1555 17.3333 40.131 17.2273 40.131 17.1234V11.6289C40.131 11.2302 40.0395 10.815 39.8511 10.3818L39.8504 10.3802L39.8504 10.3802C39.6724 9.96023 39.3893 9.60504 38.9962 9.31365L38.9953 9.31298C38.6213 9.03249 38.1444 8.88579 37.5508 8.88579C36.9789 8.88579 36.5085 9.03155 36.1281 9.31331L34.5817 9.94432Z" fill="black" stroke="black" stroke-width="0.393248"/>
<path d="M25.066 16.277L25.0746 17.1378C25.0746 17.1382 25.0746 17.1385 25.0746 17.1388L25.0746 17.1398L25.2712 17.1378L25.066 16.277ZM25.066 16.277C24.8953 16.4849 24.7013 16.6771 24.4845 16.8535L24.4833 16.8545C24.0967 17.1637 23.6757 17.4015 23.2206 17.567C22.7674 17.7318 22.3226 17.8158 21.8872 17.8158C21.0836 17.8158 20.3608 17.6195 19.7247 17.2232L19.7237 17.2226C19.0932 16.8247 18.6029 16.301 18.2558 15.6534L18.2555 15.6529C17.9098 15.0028 17.7364 14.3121 17.7364 13.5834V8.52588C17.7364 8.42666 17.7564 8.31562 17.8305 8.22736C17.91 8.13248 18.0211 8.0997 18.1255 8.0997H18.1329C18.2378 8.0997 18.351 8.12965 18.4343 8.22192C18.5142 8.31039 18.5369 8.42372 18.5369 8.52588V13.5834C18.5369 14.2532 18.6898 14.8455 18.9916 15.3656C19.2956 15.8893 19.7002 16.2934 20.2069 16.5816" fill="black" stroke="black" stroke-width="0.393248"/>
<path d="M7.47796 15.375L7.45509 15.3881L7.43647 15.4067L7.42167 15.4215C7.42167 15.4215 7.42166 15.4215 7.42166 15.4215C7.34648 15.4967 7.30484 15.5932 7.30484 15.7012C7.30484 15.8294 7.37196 15.9405 7.44768 16.0283C7.94292 16.6252 8.50252 17.0605 9.12768 17.3262L9.1295 17.3269C9.7553 17.5855 10.4753 17.7121 11.2854 17.7121C12.055 17.7121 12.7504 17.5981 13.3685 17.3663C13.9919 17.1326 14.4907 16.7733 14.8563 16.2857C15.2269 15.7916 15.4066 15.1853 15.4066 14.4794C15.4066 13.8193 15.2016 13.2755 14.776 12.8715C14.3793 12.4855 13.9164 12.2083 13.3894 12.0412C12.8807 11.875 12.2285 11.7129 11.435 11.5542L11.435 11.5542L11.433 11.5538C10.4538 11.3687 9.6855 11.108 9.11939 10.7779C8.58777 10.4605 8.33491 10.0239 8.33491 9.45149C8.33491 8.92817 8.48292 8.52514 8.76369 8.22278L8.76369 8.22278L8.76463 8.22176C9.05952 7.89965 9.43793 7.66552 9.90626 7.52173C10.3895 7.3749 10.9105 7.30075 11.4705 7.30075C11.9261 7.30075 12.2982 7.3348 12.5904 7.39974L12.5904 7.39977L12.5939 7.40049C12.8925 7.46114 13.1512 7.55577 13.3723 7.68212C13.5998 7.81211 13.8579 7.99844 14.1472 8.24414C14.2049 8.29649 14.2608 8.34127 14.3134 8.3742C14.3785 8.41487 14.4536 8.44111 14.5361 8.44111C14.6192 8.44111 14.6971 8.41743 14.7662 8.3742L14.7852 8.36233L14.801 8.3465L14.8159 8.33169L14.8257 8.32181L14.8341 8.31063C14.8893 8.2371 14.9179 8.15127 14.9179 8.05936C14.9179 7.94429 14.8758 7.8396 14.7936 7.75742L14.7937 7.7574L14.7913 7.75514C14.3212 7.30034 13.8221 6.97266 13.2934 6.77892C12.7727 6.58632 12.1637 6.49283 11.4705 6.49283C10.6875 6.49283 9.99863 6.60386 9.40821 6.83167C8.82103 7.05518 8.35626 7.38948 8.02452 7.83893L8.02451 7.83893L8.02362 7.84016C7.69484 8.29291 7.53439 8.83337 7.53439 9.45149C7.53439 9.98177 7.67569 10.4446 7.96672 10.829L7.96671 10.829L7.96754 10.8301C8.25477 11.204 8.67518 11.5057 9.21455 11.742L9.21518 11.7423C9.75662 11.9772 10.4409 12.1682 11.2635 12.3179C11.9603 12.4553 12.5304 12.5919 12.9757 12.7275C13.4029 12.8575 13.7855 13.0707 14.1251 13.3684L14.1251 13.3685L14.1273 13.3703C14.4439 13.6399 14.6061 14.0023 14.6061 14.4794C14.6061 15.0566 14.4578 15.514 14.1753 15.8672L14.1751 15.8674C13.8903 16.2245 13.504 16.4881 13.0073 16.6552L13.0067 16.6554C12.5075 16.825 11.9346 16.9116 11.2854 16.9116C10.5201 16.9116 9.88544 16.7936 9.37446 16.5662C8.86558 16.3326 8.42841 15.9893 8.06196 15.5336L8.062 15.5336L8.05913 15.5302C7.9701 15.4244 7.84576 15.3195 7.68659 15.3195C7.6126 15.3195 7.54198 15.3384 7.47796 15.375Z" fill="black" stroke="black" stroke-width="0.393248"/>
<path d="M71.9754 5.84363L71.9754 5.8436L71.9728 5.84732C71.914 5.9336 71.8942 6.03438 71.8942 6.13181V17.1035C71.8942 17.2009 71.914 17.3017 71.9728 17.388L71.9769 17.394L71.9814 17.3996C72.0623 17.5012 72.1779 17.5389 72.2908 17.5389H72.2982C72.4075 17.5389 72.5268 17.5028 72.6044 17.3941C72.6708 17.3077 72.6947 17.2046 72.6947 17.1035V6.13181C72.6947 6.0322 72.6715 5.9306 72.6072 5.84491C72.533 5.73257 72.4146 5.68912 72.2982 5.68912H72.2908C72.1702 5.68912 72.0533 5.73483 71.9754 5.84363Z" fill="black" stroke="black" stroke-width="0.393248"/>
<path d="M68.5575 17.4038L68.5573 17.404L68.5647 17.4126C68.6476 17.5073 68.7615 17.539 68.8682 17.539H68.8756C68.9822 17.539 69.0949 17.5058 69.1759 17.4099C69.2514 17.3204 69.2722 17.2073 69.2722 17.1054V8.49347C69.2722 8.3928 69.2509 8.28058 69.1739 8.19217C69.0923 8.09856 68.9802 8.06729 68.8756 8.06729H68.8682C68.7633 8.06729 68.6501 8.09724 68.5668 8.18951C68.4869 8.27798 68.4643 8.39131 68.4643 8.49347V17.1054C68.4643 17.2093 68.4887 17.3154 68.5575 17.4038Z" fill="black" stroke="black" stroke-width="0.393248"/>
<path d="M65.0424 15.5025C65.1121 15.3975 65.1776 15.2898 65.239 15.1795V17.098C65.239 17.2609 65.3056 17.3423 65.4389 17.3423H65.4463C65.5796 17.3423 65.6463 17.2609 65.6463 17.098V8.50084C65.6463 8.33793 65.5796 8.25647 65.4463 8.25647H65.4389C65.3698 8.25647 65.318 8.27869 65.2834 8.32312C65.2538 8.36755 65.239 8.42679 65.239 8.50084V10.5648C65.1777 10.454 65.1121 10.3458 65.0424 10.2401M65.0424 15.5025V15.1279C64.82 15.5174 64.5425 15.873 64.2097 16.1946C63.7703 16.6191 63.2693 16.9499 62.7065 17.1868C62.1437 17.4238 61.5563 17.5423 60.9441 17.5423C60.1444 17.5423 59.3842 17.3324 58.6634 16.9128C57.9476 16.4883 57.37 15.9181 56.9307 15.2023C56.4963 14.4865 56.2791 13.7114 56.2791 12.8771C56.2791 12.0429 56.4963 11.2653 56.9307 10.5446C57.37 9.81891 57.9476 9.2438 58.6634 8.81925M65.0424 15.5025V17.098C65.0424 17.2012 65.0627 17.3152 65.1368 17.4057C65.2171 17.5039 65.3304 17.5389 65.4389 17.5389H65.4463C65.5549 17.5389 65.6682 17.5039 65.7485 17.4057C65.8226 17.3152 65.8429 17.2012 65.8429 17.098V8.50084C65.8429 8.39758 65.8226 8.28363 65.7485 8.19305C65.6682 8.09493 65.5549 8.05985 65.4463 8.05985H65.4389C65.3245 8.05985 65.2085 8.09916 65.1282 8.2024L65.1238 8.20807L65.1198 8.21405C65.0618 8.30104 65.0424 8.40247 65.0424 8.50084V10.2401M65.0424 15.5025C64.844 15.8015 64.6119 16.0793 64.3463 16.336C63.8895 16.7774 63.368 17.1216 62.7828 17.368C62.1958 17.6152 61.5824 17.7389 60.9441 17.7389C60.1081 17.7389 59.3139 17.5191 58.5645 17.0828L58.5631 17.082C57.8196 16.6409 57.219 16.0479 56.7631 15.3052L56.7626 15.3043C56.3096 14.5579 56.0824 13.7475 56.0824 12.8771C56.0824 12.0068 56.3096 11.1942 56.7623 10.4431L56.7625 10.4428C57.2182 9.69003 57.8188 9.09161 58.5629 8.65024M58.6634 8.81925C59.3842 8.38976 60.1444 8.17502 60.9441 8.17502C61.5513 8.17502 62.1363 8.29597 62.6991 8.53786M58.6634 8.81925L58.5628 8.65034C58.5628 8.6503 58.5629 8.65027 58.5629 8.65024M58.6634 8.81925L58.5631 8.65013C58.5631 8.65017 58.563 8.6502 58.5629 8.65024M62.6991 8.53786C63.2619 8.77482 63.7629 9.10804 64.2023 9.53753C64.539 9.86304 64.8191 10.2226 65.0424 10.6161V10.2401M62.6991 8.53786L62.7754 8.35664C62.7756 8.35674 62.7758 8.35683 62.7761 8.35692M62.6991 8.53786L62.7768 8.35722C62.7765 8.35712 62.7763 8.35702 62.7761 8.35692M65.0424 10.2401C64.8426 9.93768 64.6082 9.65642 64.3393 9.39648M64.3393 9.39648C63.8827 8.95023 63.3613 8.60342 62.7761 8.35692M64.3393 9.39648C64.3392 9.39637 64.3391 9.39626 64.339 9.39615L64.2023 9.53748L64.3397 9.39692C64.3396 9.39677 64.3394 9.39663 64.3393 9.39648ZM58.5629 8.65024C59.3125 8.20361 60.1073 7.97839 60.9441 7.97839C61.578 7.97839 62.1892 8.10478 62.7761 8.35692M64.4498 10.8481L64.4498 10.8481L64.4507 10.8495C64.8459 11.4752 65.0424 12.1497 65.0424 12.8771C65.0424 13.607 64.8569 14.2805 64.4853 14.9014C64.1125 15.5243 63.6109 16.019 62.9778 16.3875C62.3464 16.755 61.6672 16.9384 60.9367 16.9384C60.2429 16.9384 59.5837 16.7561 58.9562 16.3882C58.3324 16.0148 57.8298 15.5169 57.4466 14.8926C57.0704 14.2717 56.8829 13.6012 56.8829 12.8771C56.8829 12.1426 57.0707 11.4644 57.4471 10.8387C57.8305 10.2044 58.333 9.70468 58.956 9.33656L58.9564 9.33633C59.584 8.96353 60.2431 8.77891 60.9367 8.77891C61.6149 8.77891 62.2693 8.96316 62.9029 9.33666L62.9034 9.33698C63.5419 9.71065 64.0568 10.2136 64.4498 10.8481Z" fill="black" stroke="black" stroke-width="0.393248"/>
<path d="M68.8682 3.2862C69.1725 3.2862 69.4191 3.03952 69.4191 2.73522C69.4191 2.43092 69.1725 2.18423 68.8682 2.18423C68.5639 2.18423 68.3172 2.43092 68.3172 2.73522C68.3172 3.03952 68.5639 3.2862 68.8682 3.2862Z" fill="black" stroke="black" stroke-width="0.393248"/>
<path d="M46.5747 9.37608L46.5661 8.51524C46.5661 8.51489 46.5661 8.51455 46.5661 8.5142L46.5661 8.51327L46.3695 8.51524L46.5747 9.37608ZM46.5747 9.37608C46.7455 9.16811 46.9394 8.97594 47.1562 8.79959L47.1575 8.79858C47.544 8.48937 47.965 8.25157 48.4201 8.08609C48.8733 7.92128 49.3181 7.83729 49.7535 7.83729C50.5572 7.83729 51.28 8.03353 51.9161 8.4298L51.9171 8.43041C52.5475 8.82835 53.0378 9.35202 53.3849 9.9996L53.3852 10.0002C53.7309 10.6503 53.9044 11.3409 53.9044 12.0696V17.1272C53.9044 17.2264 53.8843 17.3374 53.8103 17.4257C53.7307 17.5206 53.6197 17.5533 53.5152 17.5533H53.5078C53.403 17.5533 53.2898 17.5234 53.2064 17.4311C53.1265 17.3427 53.1039 17.2293 53.1039 17.1272V12.0696C53.1039 11.3998 52.9509 10.8075 52.6491 10.2874C52.3452 9.76374 51.9405 9.35969 51.4339 9.07142" fill="black" stroke="black" stroke-width="0.393248"/>
</svg>
