<svg width="20" height="20" viewBox="0 0 20 20" fill="none" xmlns="http://www.w3.org/2000/svg">
<g id="ic_MapPin_home">
<path id="Vector" d="M10 2C8.14413 2.00201 6.36488 2.70629 5.05258 3.95835C3.74028 5.2104 3.00211 6.90797 3 8.67864C3 14.3934 9.36364 18.7095 9.63489 18.8901C9.74188 18.9616 9.86936 19 10 19C10.1306 19 10.2581 18.9616 10.3651 18.8901C10.6364 18.7095 17 14.3934 17 8.67864C16.9979 6.90797 16.2597 5.2104 14.9474 3.95835C13.6351 2.70629 11.8559 2.00201 10 2ZM10 6.25004C10.5034 6.25004 10.9956 6.39248 11.4142 6.65934C11.8328 6.92619 12.159 7.30549 12.3517 7.74925C12.5444 8.19302 12.5948 8.68133 12.4965 9.15243C12.3983 9.62354 12.1559 10.0563 11.7999 10.3959C11.4439 10.7356 10.9904 10.9669 10.4966 11.0606C10.0028 11.1543 9.49102 11.1062 9.0259 10.9224C8.56078 10.7386 8.16323 10.4273 7.88353 10.0279C7.60383 9.62851 7.45455 9.15897 7.45455 8.67864C7.45455 8.03453 7.72273 7.41681 8.20009 6.96136C8.67746 6.50591 9.3249 6.25004 10 6.25004Z" fill="#FF7BD2"/>
</g>
</svg>
