<svg width="20" height="20" viewBox="0 0 20 20" fill="none" xmlns="http://www.w3.org/2000/svg">
<g id="ic_Money_home">
<path id="Vector" d="M19 4.72222V16.2778C19 16.4693 18.9368 16.653 18.8243 16.7885C18.7117 16.9239 18.5591 17 18.4 17H1.6C1.44087 17 1.28826 16.9239 1.17574 16.7885C1.06321 16.653 1 16.4693 1 16.2778V4.72222C1 4.53068 1.06321 4.34698 1.17574 4.21153C1.28826 4.07609 1.44087 4 1.6 4H18.4C18.5591 4 18.7117 4.07609 18.8243 4.21153C18.9368 4.34698 19 4.53068 19 4.72222ZM17.8 8.9066C17.1187 8.66412 16.4986 8.22031 15.9963 7.61561C15.4939 7.01091 15.1252 6.26452 14.9237 5.44444H5.07625C4.8748 6.26452 4.50611 7.01091 4.00374 7.61561C3.50137 8.22031 2.8813 8.66412 2.2 8.9066V12.0934C2.8813 12.3359 3.50137 12.7797 4.00374 13.3844C4.50611 13.9891 4.8748 14.7355 5.07625 15.5556H14.9237C15.1252 14.7355 15.4939 13.9891 15.9963 13.3844C16.4986 12.7797 17.1187 12.3359 17.8 12.0934V8.9066Z" fill="#FF7BD2"/>
<path id="Vector_2" d="M12.5983 12.2362C12.9417 11.7223 13.125 11.1181 13.125 10.5C13.125 9.6712 12.7958 8.87634 12.2097 8.29029C11.6237 7.70424 10.8288 7.375 10 7.375C9.38194 7.375 8.77775 7.55828 8.26384 7.90166C7.74994 8.24504 7.3494 8.7331 7.11288 9.30411C6.87635 9.87513 6.81447 10.5035 6.93505 11.1097C7.05563 11.7158 7.35325 12.2727 7.79029 12.7097C8.22733 13.1467 8.78415 13.4444 9.39034 13.565C9.99654 13.6855 10.6249 13.6236 11.1959 13.3871C11.7669 13.1506 12.255 12.7501 12.5983 12.2362Z" fill="#FF7BD2"/>
</g>
</svg>
